<?xml version="1.0" standalone="no"?>
<!DOCTYPE svg PUBLIC "-//W3C//DTD SVG 20010904//EN"
 "http://www.w3.org/TR/2001/REC-SVG-20010904/DTD/svg10.dtd">
<svg version="1.0" xmlns="http://www.w3.org/2000/svg"
 width="758.000000pt" height="422.000000pt" viewBox="0 0 758.000000 422.000000"
 preserveAspectRatio="xMidYMid meet">

<g transform="translate(0.000000,422.000000) scale(0.100000,-0.100000)"
fill="#000000" stroke="none">
<path d="M2245 3980 c-4 -6 -3 -16 3 -22 6 -6 12 -6 17 2 4 6 3 16 -3 22 -6 6
-12 6 -17 -2z"/>
<path d="M2732 3858 c-26 -26 1 -65 38 -53 32 10 20 65 -15 65 -6 0 -16 -5
-23 -12z"/>
<path d="M1732 3838 c-17 -17 -15 -57 3 -64 8 -4 26 -3 40 0 41 11 28 76 -15
76 -9 0 -21 -5 -28 -12z"/>
<path d="M1285 3700 c-3 -6 1 -13 10 -16 19 -8 30 0 20 15 -8 14 -22 14 -30 1z"/>
<path d="M3230 3616 c0 -9 7 -16 16 -16 9 0 14 5 12 12 -6 18 -28 21 -28 4z"/>
<path d="M925 3320 c-11 -17 5 -32 21 -19 7 6 11 15 8 20 -7 12 -21 11 -29 -1z"/>
<path d="M2525 3309 c-10 -15 1 -23 20 -15 9 3 13 10 10 16 -8 13 -22 13 -30
-1z"/>
<path d="M3468 3204 c-11 -10 3 -34 19 -34 8 0 13 7 11 17 -3 18 -20 27 -30
17z"/>
<path d="M1373 3020 c-29 -12 -31 -55 -3 -70 44 -23 80 29 44 64 -8 9 -16 16
-17 15 -1 0 -12 -4 -24 -9z"/>
<path d="M625 2890 c-8 -13 4 -32 16 -25 12 8 12 35 0 35 -6 0 -13 -4 -16 -10z"/>
<path d="M3805 2780 c-10 -17 12 -37 25 -24 8 8 6 15 -4 23 -10 9 -16 9 -21 1z"/>
<path d="M5043 2503 c-24 -9 -13 -39 26 -77 41 -40 71 -43 71 -7 0 15 -72 94
-83 90 -1 0 -8 -3 -14 -6z"/>
<path d="M5279 2423 l-89 -89 0 -91 c0 -67 4 -94 15 -103 26 -21 35 0 35 82
l0 80 81 83 c78 81 94 112 61 123 -8 2 -54 -36 -103 -85z"/>
<path d="M5610 2495 c-16 -19 -15 -20 178 -210 153 -151 163 -158 179 -142 17
16 8 27 -157 192 -96 96 -178 175 -181 175 -4 0 -12 -7 -19 -15z"/>
<path d="M5930 2491 c-16 -31 -13 -146 5 -161 29 -24 45 5 45 84 0 87 -24 124
-50 77z"/>
<path d="M4578 2484 c-36 -19 -61 -68 -53 -103 12 -56 77 -91 169 -91 28 0 59
-7 69 -14 27 -21 21 -59 -13 -79 -33 -20 -37 -29 -16 -46 30 -25 106 35 106
85 0 67 -52 103 -161 113 -100 10 -129 48 -69 91 33 24 39 45 14 54 -19 7 -13
8 -46 -10z"/>
<path d="M4732 2488 c-19 -19 -15 -28 24 -44 39 -17 64 -13 64 9 0 31 -66 57
-88 35z"/>
<path d="M6248 2467 c-71 -60 -90 -163 -43 -242 27 -46 63 -75 95 -75 32 0 24
28 -19 70 -66 64 -66 136 0 200 21 21 39 45 39 54 0 24 -40 20 -72 -7z"/>
<path d="M6404 2478 c-9 -14 53 -68 78 -68 27 0 22 35 -8 59 -30 23 -59 27
-70 9z"/>
<path d="M2162 2415 c-62 -27 -61 -103 2 -134 25 -12 33 -12 55 2 52 31 53
105 3 131 -23 12 -32 12 -60 1z"/>
<path d="M667 2403 c-13 -12 -7 -33 8 -33 8 0 15 9 15 20 0 20 -11 26 -23 13z"/>
<path d="M3155 2335 c-14 -13 -25 -36 -25 -50 0 -33 41 -75 73 -75 30 0 77 45
77 75 0 31 -44 75 -75 75 -14 0 -37 -11 -50 -25z"/>
<path d="M5612 2308 c-18 -18 -16 -152 3 -168 29 -24 45 5 45 84 0 65 -10 96
-30 96 -3 0 -11 -5 -18 -12z"/>
<path d="M3778 2296 c-36 -27 -11 -85 31 -71 29 9 36 42 15 66 -20 22 -23 23
-46 5z"/>
<path d="M6438 2212 c-29 -18 -42 -38 -32 -53 16 -27 94 16 94 52 0 23 -24 24
-62 1z"/>
<path d="M4534 2196 c-3 -9 -4 -22 -1 -30 6 -15 80 -32 97 -21 18 11 10 35
-15 45 -56 21 -75 23 -81 6z"/>
<path d="M536 1903 c-12 -12 -6 -33 9 -33 8 0 15 6 15 14 0 17 -14 28 -24 19z"/>
<path d="M1324 1799 c-10 -17 13 -36 27 -22 12 12 4 33 -11 33 -5 0 -12 -5
-16 -11z"/>
<path d="M3744 1716 c-8 -22 3 -33 18 -18 9 9 9 15 0 24 -9 9 -13 7 -18 -6z"/>
<path d="M850 1460 c-16 -31 4 -62 38 -58 21 2 28 9 30 32 5 45 -47 65 -68 26z"/>
<path d="M2427 1403 c-11 -11 -8 -48 5 -61 32 -32 87 18 58 53 -13 15 -51 20
-63 8z"/>
<path d="M3395 1391 c-7 -12 12 -24 25 -16 11 7 4 25 -10 25 -5 0 -11 -4 -15
-9z"/>
<path d="M1170 1025 c0 -8 7 -15 15 -15 8 0 15 7 15 15 0 8 -7 15 -15 15 -8 0
-15 -7 -15 -15z"/>
<path d="M3136 953 c-11 -11 -6 -23 9 -23 8 0 15 4 15 9 0 13 -16 22 -24 14z"/>
<path d="M1642 914 c1 -9 9 -19 16 -22 9 -3 13 2 10 14 -1 9 -9 19 -16 22 -9
3 -13 -2 -10 -14z"/>
<path d="M2586 844 c-33 -33 -34 -73 -3 -102 33 -31 80 -29 106 4 34 43 26 86
-20 109 -39 21 -52 19 -83 -11z"/>
</g>
</svg>
